<mxfile host="app.diagrams.net" modified="2022-01-17T10:32:34.558Z" agent="5.0 (Windows NT 10.0; WOW64) AppleWebKit/537.36 (KHTML, like Gecko) Chrome/88.0.4324.104 Safari/537.36" etag="4g6fmqrjEFpEk23TT756" version="15.9.4" type="github">
  <diagram id="wsE7WzXNPkSY77Hgt09Q" name="Page-1">
    <mxGraphModel dx="1422" dy="794" grid="1" gridSize="10" guides="1" tooltips="1" connect="1" arrows="1" fold="1" page="1" pageScale="1" pageWidth="850" pageHeight="1100" math="0" shadow="0">
      <root>
        <mxCell id="0" />
        <mxCell id="1" parent="0" />
        <mxCell id="dE5-vguicXEwuGkqsbIh-1" value="" style="rounded=0;whiteSpace=wrap;html=1;fillColor=#dae8fc;strokeColor=#6c8ebf;" vertex="1" parent="1">
          <mxGeometry x="80" y="200" width="1040" height="440" as="geometry" />
        </mxCell>
        <mxCell id="dE5-vguicXEwuGkqsbIh-2" value="&lt;h4&gt;&lt;font face=&quot;Times New Roman&quot; style=&quot;font-size: 18px&quot;&gt;secret&lt;/font&gt;&lt;/h4&gt;" style="rounded=0;whiteSpace=wrap;html=1;" vertex="1" parent="1">
          <mxGeometry x="160" y="500" width="120" height="50" as="geometry" />
        </mxCell>
        <mxCell id="dE5-vguicXEwuGkqsbIh-4" value="&lt;h4&gt;&lt;font style=&quot;font-size: 18px&quot;&gt;encrypted secret&lt;/font&gt;&lt;/h4&gt;" style="rounded=0;whiteSpace=wrap;html=1;fontFamily=Times New Roman;fontSize=20;" vertex="1" parent="1">
          <mxGeometry x="440" y="500" width="120" height="50" as="geometry" />
        </mxCell>
        <mxCell id="dE5-vguicXEwuGkqsbIh-5" value="" style="shape=singleArrow;whiteSpace=wrap;html=1;fontFamily=Times New Roman;fontSize=18;" vertex="1" parent="1">
          <mxGeometry x="310" y="507.5" width="100" height="35" as="geometry" />
        </mxCell>
        <mxCell id="dE5-vguicXEwuGkqsbIh-10" value="&lt;h4&gt;sops encrypt&lt;/h4&gt;" style="ellipse;whiteSpace=wrap;html=1;fontFamily=Times New Roman;fontSize=18;" vertex="1" parent="1">
          <mxGeometry x="300" y="360" width="120" height="80" as="geometry" />
        </mxCell>
        <mxCell id="dE5-vguicXEwuGkqsbIh-11" value="" style="endArrow=classic;html=1;rounded=0;fontFamily=Times New Roman;fontSize=18;" edge="1" parent="1" source="dE5-vguicXEwuGkqsbIh-1" target="dE5-vguicXEwuGkqsbIh-1">
          <mxGeometry width="50" height="50" relative="1" as="geometry">
            <mxPoint x="480" y="510" as="sourcePoint" />
            <mxPoint x="530" y="460" as="targetPoint" />
          </mxGeometry>
        </mxCell>
        <mxCell id="dE5-vguicXEwuGkqsbIh-12" value="" style="endArrow=classic;html=1;rounded=0;fontFamily=Times New Roman;fontSize=18;" edge="1" parent="1" source="dE5-vguicXEwuGkqsbIh-1" target="dE5-vguicXEwuGkqsbIh-1">
          <mxGeometry width="50" height="50" relative="1" as="geometry">
            <mxPoint x="480" y="510" as="sourcePoint" />
            <mxPoint x="530" y="460" as="targetPoint" />
          </mxGeometry>
        </mxCell>
      </root>
    </mxGraphModel>
  </diagram>
</mxfile>
